PathFileType	4	(X/Y/Z)	C:\Users\Basilio\Documents\Thesis Gigler\squatting_fais\c3dfiles\073\SLS_front_pre1\markers_experimental.trc
DataRate	CameraRate	NumFrames	NumMarkers	Units	OrigDataRate	OrigDataStartFrame	OrigNumFrames
200.000000	200.000000	4	61	mm	200.000000	174	1395
Frame#	Time	FHD			LBHD			RBHD			C7			T10			CLAV			LSHO			LUUPA			LMUPA			LDUPA			LLEP			LMEP			LRAD			LUL			LRFIN			RSHO			RUPA1			RMUPA			RDUPA			RLEP			RMEP			RUL			RUFIN			LASI			RASI			USACR			LSACR			RSACR			LTHI1			LTHI2			LTHI3			LTHI4			LLFC			LMFC			LTIB1			LTIB2			LTIB3			LTIB4			LLMAL			LMMAL			LHEE			LMT1			LMT2			LMT5			RTHI			RTHI2			RTHI3			RTHI4			RLFC			RMFC			RTIB1			RTIB2			RTIB3			RTIB4			RLMAL			RMMAL			RHEE			RMT1			RMT2			RMT5			RRAD			
		X1	Y1	Z1	X2	Y2	Z2	X3	Y3	Z3	X4	Y4	Z4	X5	Y5	Z5	X6	Y6	Z6	X7	Y7	Z7	X8	Y8	Z8	X9	Y9	Z9	X10	Y10	Z10	X11	Y11	Z11	X12	Y12	Z12	X13	Y13	Z13	X14	Y14	Z14	X15	Y15	Z15	X16	Y16	Z16	X17	Y17	Z17	X18	Y18	Z18	X19	Y19	Z19	X20	Y20	Z20	X21	Y21	Z21	X22	Y22	Z22	X23	Y23	Z23	X24	Y24	Z24	X25	Y25	Z25	X26	Y26	Z26	X27	Y27	Z27	X28	Y28	Z28	X29	Y29	Z29	X30	Y30	Z30	X31	Y31	Z31	X32	Y32	Z32	X33	Y33	Z33	X34	Y34	Z34	X35	Y35	Z35	X36	Y36	Z36	X37	Y37	Z37	X38	Y38	Z38	X39	Y39	Z39	X40	Y40	Z40	X41	Y41	Z41	X42	Y42	Z42	X43	Y43	Z43	X44	Y44	Z44	X45	Y45	Z45	X46	Y46	Z46	X47	Y47	Z47	X48	Y48	Z48	X49	Y49	Z49	X50	Y50	Z50	X51	Y51	Z51	X52	Y52	Z52	X53	Y53	Z53	X54	Y54	Z54	X55	Y55	Z55	X56	Y56	Z56	X57	Y57	Z57	X58	Y58	Z58	X59	Y59	Z59	X60	Y60	Z60	X61	Y61	Z61	

175	0.87	-275.0488586425782	1698.23291015625	-784.6887207031252	-407.2604064941407	1665.575927734375	-815.5546875000002	-435.3276367187501	1643.509399414063	-683.6594848632814	-464.8426513671876	1539.233154296875	-750.1151123046876	-477.4785461425782	1197.51904296875	-755.9931030273439	-333.9362182617188	1464.452880859375	-747.8309936523439	-358.8648986816407	1500.495483398438	-900.1441650390627	-267.9945678710938	1419.791870117188	-984.0681152343752	-228.6316528320313	1443.284912109375	-962.990417480469	-204.1464843750001	1393.954711914063	-989.3259887695315	-99.88842773437503	1371.72119140625	-987.8845214843752	-103.4931716918946	1320.40869140625	-938.782409667969	158.6304473876953	1407.526245117188	-879.0208129882815	162.3760681152344	1399.395385742188	-953.2286376953127	239.1945190429688	1417.940063476563	-871.7092285156252	-357.4424133300782	1491.476318359375	-596.6979980468751	-259.2060546875001	1390.396728515625	-505.251190185547	-220.9168701171876	1415.849731445313	-519.2200927734376	-194.9676971435547	1365.66455078125	-499.3701477050782	-102.7278823852539	1352.873168945313	-500.1051635742189	-104.4839553833008	1300.54052734375	-564.0432739257814	159.19580078125	1395.34814453125	-536.7349853515626	241.8284454345704	1413.768432617188	-613.5547485351564	-298.7295532226563	1062.830932617188	-893.8432617187502	-291.0894775390626	1035.454833984375	-642.4582519531251	-483.5735168457032	1095.738525390625	-758.3734130859376	-494.8854064941407	1068.883422851563	-789.4750976562502	-496.2811584472657	1061.722778320313	-733.7460327148439	-256.2694702148438	750.6442260742189	-954.5945434570315	-204.6726379394532	686.3219604492189	-934.1019287109377	-171.102767944336	699.4725952148439	-900.0428466796877	-219.0784606933594	628.7677612304689	-931.820251464844	-207.1019287109376	569.7521362304689	-932.3165283203127	-222.1481018066407	558.4481201171876	-795.511169433594	-140.0317535400391	379.0345153808594	-881.4211425781252	-188.4093170166016	333.9077758789063	-939.2707519531252	-149.767807006836	331.2107543945313	-915.269958496094	-143.7304077148438	252.2193756103516	-883.6348266601565	-191.4904479980469	128.5096282958985	-916.1130371093752	-190.1793060302735	152.0341949462891	-830.8995361328127	-250.4249725341797	92.01655578613283	-878.3245239257815	-32.38282775878907	102.6832733154297	-820.3482666015627	-27.3641586303711	104.1778030395508	-858.5830688476565	-55.89084625244142	78.41247558593751	-914.5070800781252	-377.5381469726563	795.647399902344	-594.5834350585939	-340.1564941406251	740.8914794921876	-596.0830078125001	-306.6280517578126	743.7108764648439	-598.0931396484376	-363.3250427246094	665.0089721679689	-623.8143920898439	-339.0414733886719	517.0813598632814	-648.6243286132814	-329.8960266113282	515.4891967773439	-779.5421142578127	-295.8762207031251	360.9100646972657	-747.1620483398439	-320.8734436035157	274.8931884765626	-687.5796508789064	-294.4226379394532	275.8673400878907	-728.4090576171876	-313.0923461914063	233.9944152832032	-764.4835815429689	-366.2009277343751	101.6361389160157	-723.1368408203126	-356.1554260253907	129.910888671875	-808.3485107421877	-433.8384094238282	82.62485504150392	-782.0942382812502	-209.4964752197266	55.13027191162111	-786.3739013671877	-210.7414550781251	52.62713623046876	-745.1685791015626	-256.3108825683594	34.59819412231446	-699.2156982421876	149.9110565185547	1392.09326171875	-610.1607666015626	
176	0.875	-271.9824523925782	1698.673950195313	-784.6182861328127	-407.2932128906251	1665.55810546875	-815.360046386719	-435.2583312988282	1643.602416992188	-683.3780517578126	-464.8495483398439	1539.27001953125	-749.8748779296876	-477.6018066406251	1197.539184570313	-755.8244018554689	-333.9488525390626	1464.4150390625	-747.6026000976564	-358.9059143066407	1500.517822265625	-899.8839111328127	-268.1091918945313	1419.775390625	-983.841735839844	-228.6816711425782	1443.269653320313	-962.7910766601565	-204.2667083740235	1393.935302734375	-989.0944824218752	-99.89521026611331	1371.692138671875	-987.740173339844	-103.5973663330078	1320.386474609375	-938.5647583007815	158.6068420410157	1407.482421875	-878.9874267578127	162.3493804931641	1399.271606445313	-953.222106933594	239.1253051757813	1417.80126953125	-871.7236938476565	-357.4603881835938	1491.5	-596.4829711914064	-259.2085266113282	1390.465454101563	-504.9941711425782	-220.9296875000001	1415.905639648438	-518.9769287109376	-194.9385375976563	1365.762817382813	-499.1836547851564	-102.6742858886719	1352.945556640625	-499.8775939941407	-104.4423217773438	1300.3681640625	-563.6137084960939	159.1884155273438	1395.391723632813	-536.6730957031251	241.8324127197266	1413.788818359375	-613.4686889648439	-298.8741149902344	1062.762329101563	-893.7530517578127	-291.2901916503907	1035.453369140625	-642.2784423828126	-483.7860717773439	1095.729614257813	-758.2822875976564	-495.0958862304689	1068.87646484375	-789.351501464844	-496.6854858398439	1061.681884765625	-733.6452636718751	-256.5985107421876	750.8485107421876	-954.823425292969	-204.9201354980469	686.5318603515626	-934.3718261718752	-171.3804931640625	699.6649169921876	-900.170349121094	-219.2960205078126	628.9657592773439	-931.9412841796877	-207.1060333251954	570.0077514648439	-932.3155517578127	-221.9815063476563	558.5574951171876	-795.3676757812502	-137.9473724365235	379.9231567382813	-881.2766113281252	-186.1142730712891	334.1781005859376	-939.472595214844	-147.2808990478516	332.0556640625001	-915.048034667969	-140.1359100341797	253.1160583496094	-883.530700683594	-186.8629608154297	128.8733367919922	-915.7135009765627	-185.5003662109375	152.3712615966797	-830.6132812500002	-245.3948364257813	91.97191619873048	-878.053405761719	-27.30969238281251	104.4935836791992	-820.4236450195315	-22.33973121643067	105.961669921875	-858.5274658203127	-50.84143066406251	79.9518508911133	-914.5848388671877	-377.7296142578126	795.6091918945315	-594.5276489257814	-340.3246154785157	740.8883056640626	-595.9728393554689	-306.8465881347657	743.6801147460939	-597.8862304687501	-363.4956665039063	665.0072021484376	-623.7261352539064	-339.1580810546876	517.0610961914064	-648.4892578125001	-329.7375488281251	515.4779663085939	-779.3859863281252	-295.8281250000001	360.9391174316407	-747.0295410156251	-320.9107360839844	274.8954467773438	-687.5380859375001	-294.4142456054688	275.8110351562501	-728.4071044921876	-313.0747985839844	234.0360870361329	-764.3654174804689	-366.2251586914063	101.6249389648438	-723.0831909179689	-355.9726867675782	129.851806640625	-808.2690429687502	-433.8316955566407	82.63595581054689	-782.046081542969	-209.4864807128907	55.13318252563478	-786.3425903320315	-210.7661132812501	52.62288665771486	-745.1395874023439	-256.2991027832032	34.58589172363282	-699.2156982421876	149.9134368896485	1392.11962890625	-610.0119628906251	
177	0.88	-271.9732360839844	1698.688842773438	-784.481384277344	-407.2501525878907	1665.53564453125	-815.1677856445315	-435.2416381835939	1643.627807617188	-683.1644897460939	-464.8563537597657	1539.302612304688	-749.6205444335939	-477.7368774414064	1197.58447265625	-755.6703491210939	-334.0217590332032	1464.428955078125	-747.3833618164064	-358.9306030273438	1500.576416015625	-899.653015136719	-268.1244201660157	1419.772827148438	-983.622009277344	-228.7207489013672	1443.267456054688	-962.5921020507815	-204.4138793945313	1393.878051757813	-988.8696289062502	-100.0126113891602	1371.672607421875	-987.5944824218752	-103.6629257202149	1320.378662109375	-938.3658447265627	158.508041381836	1407.390380859375	-878.9763793945315	162.2480621337891	1399.129638671875	-953.2027587890627	239.1436004638672	1417.713012695313	-871.7618408203127	-357.4467468261719	1491.502807617188	-596.3129272460939	-259.1620178222657	1390.542846679688	-504.858612060547	-220.9293518066407	1415.948364257813	-518.8067626953126	-194.9394836425782	1365.812622070313	-498.9776611328126	-102.6338272094727	1353.041625976563	-499.7187805175782	-104.4341506958008	1300.380493164063	-563.3916015625001	159.215805053711	1395.450439453125	-536.5890502929689	241.8313903808594	1413.771362304688	-613.3875122070314	-298.9731140136719	1062.761108398438	-893.692321777344	-291.4775390625001	1035.456665039063	-642.1664428710939	-483.9455871582032	1095.724365234375	-758.1799926757814	-495.1999511718751	1068.861938476563	-789.2938232421877	-496.5960693359376	1061.68359375	-733.5784301757814	-256.8958435058594	751.0032348632814	-955.0592041015627	-205.1486968994141	686.7625732421876	-934.631530761719	-171.652587890625	699.8347167968751	-900.3881835937502	-219.5010833740235	629.0997924804689	-932.0042114257815	-207.2133483886719	570.1139526367189	-932.3845825195315	-221.7668457031251	558.7249755859376	-795.2093505859377	-135.9533233642578	380.8984985351563	-881.1605224609377	-183.6502075195313	334.6220397949219	-939.4021606445315	-144.6891479492188	332.9621582031251	-915.0441894531252	-136.8006134033203	254.0133209228516	-883.2199707031252	-182.2608642578125	129.3557281494141	-915.4591064453127	-180.8784484863282	152.8663177490235	-830.2786254882815	-240.4978179931641	91.9385452270508	-877.5026855468752	-22.12692070007325	106.2360229492188	-820.3514404296877	-17.38868713378907	107.7379226684571	-858.6425781250002	-45.70782852172852	81.53468322753908	-914.4189453125002	-377.9170532226563	795.5759277343752	-594.4809570312501	-340.5199890136719	740.8836669921876	-595.8924560546876	-307.0535583496094	743.6513671875001	-597.7728881835939	-363.6438903808594	664.9782104492189	-623.6661376953126	-339.2488403320313	517.0391235351564	-648.4453125000001	-329.6996459960938	515.4828491210939	-779.3685302734377	-295.8702697753907	360.8984680175782	-746.9758911132814	-320.9454345703126	274.8814086914063	-687.4979248046876	-294.4451599121094	275.6608581542969	-728.4515991210939	-313.0570373535157	234.0530395507813	-764.3048095703126	-366.2025146484376	101.594223022461	-723.0535888671876	-355.9047241210938	129.8466033935547	-808.2194824218752	-433.816864013672	82.64071655273439	-782.072448730469	-209.6502685546876	55.16264724731447	-786.1710205078127	-210.7345275878907	52.61939239501955	-745.1035766601564	-256.4236450195313	34.69129943847657	-699.0595703125001	149.8982391357422	1392.42724609375	-609.9531250000001	
178	0.885	-271.8883666992188	1698.683837890625	-784.3120727539065	-407.2603149414064	1665.503540039063	-814.9297485351565	-435.1896972656251	1643.57666015625	-682.9105834960939	-464.8689270019532	1539.339477539063	-749.3739013671876	-477.852020263672	1197.59375	-755.5516967773439	-334.0496215820313	1464.414672851563	-747.1776733398439	-358.9410095214844	1500.598388671875	-899.382995605469	-268.1957702636719	1419.767944335938	-983.452087402344	-228.7496643066407	1443.254150390625	-962.4404907226565	-204.5102081298829	1393.82421875	-988.7190551757815	-100.1383209228516	1371.638916015625	-987.3754882812502	-103.7527770996094	1320.354614257813	-938.1267089843752	158.4931793212891	1407.313354492188	-878.9697875976565	162.0756225585938	1398.971923828125	-953.2449340820315	239.2434387207032	1417.556640625	-871.849548339844	-357.4820861816407	1491.475952148438	-596.0970458984376	-259.1462707519532	1390.616577148438	-504.5809326171876	-220.9053649902344	1415.995361328125	-518.6923217773439	-194.9146728515626	1365.900146484375	-498.7954711914064	-102.612419128418	1353.1005859375	-499.5123901367189	-104.4615631103516	1300.4248046875	-563.1790161132814	159.2123718261719	1395.494995117188	-536.5460205078126	241.8126678466797	1413.81787109375	-613.3572998046876	-299.1619873046876	1062.704711914063	-893.570983886719	-291.6282958984376	1035.449462890625	-642.0286254882814	-484.1676330566407	1095.723022460938	-758.0422363281251	-495.3266906738282	1068.819702148438	-789.2125244140627	-496.7744750976564	1061.632080078125	-733.4595947265626	-257.2814941406251	751.1294555664064	-955.333679199219	-205.4996185302735	686.9558715820314	-934.8682250976565	-172.0241241455078	700.0687255859376	-900.573181152344	-219.6209411621094	629.2761840820314	-931.923522949219	-207.1750488281251	570.3454589843751	-932.3325805664065	-221.5684051513672	558.9107055664064	-795.086608886719	-133.9577178955078	381.7773742675782	-881.238220214844	-181.2139739990235	334.9378662109376	-939.365417480469	-142.4441375732422	333.6312866210938	-915.0037841796877	-133.5590972900391	254.9527740478516	-883.2110595703127	-177.7196502685547	129.8262023925782	-915.0817871093752	-176.2887573242188	153.4158020019532	-830.007751464844	-235.4586181640626	91.8878860473633	-876.999206542969	-17.18288230895996	108.0930099487305	-820.5393676757815	-12.45961475372315	109.5526428222657	-858.6154785156252	-40.80714797973634	83.1136932373047	-914.4796142578127	-378.1115722656251	795.545837402344	-594.4332275390626	-340.6989746093751	740.8419799804689	-595.8257446289064	-307.2329406738282	743.6382446289064	-597.6167602539064	-363.7895507812501	664.9525756835939	-623.6033935546876	-339.3442993164063	517.0087280273439	-648.3824462890626	-329.5688171386719	515.4897460937501	-779.3333129882815	-295.9157714843751	360.9251403808594	-746.9415283203126	-320.9402160644532	274.8840332031251	-687.4863891601564	-294.4064025878907	275.6400146484376	-728.4014282226564	-313.0989685058594	234.0582275390626	-764.2572021484376	-366.1973266601563	101.5828399658203	-723.0412597656251	-355.8598022460938	129.8051910400391	-808.1810302734377	-433.810760498047	82.64024353027345	-782.095642089844	-209.6606750488282	55.14979553222658	-786.197692871094	-210.748275756836	52.6019630432129	-745.1466064453126	-256.4467468261719	34.62400436401368	-699.2268676757814	149.871322631836	1392.485717773438	-609.8448486328126	
